<svg id="visual" viewBox="0 0 900 100" width="900" height="100" xmlns="http://www.w3.org/2000/svg" xmlns:xlink="http://www.w3.org/1999/xlink" version="1.1"><rect x="0" y="0" width="900" height="100" fill="#141414"></rect><path d="M0 21L13.7 21.5C27.3 22 54.7 23 82 25.2C109.3 27.3 136.7 30.7 163.8 32.3C191 34 218 34 245.2 31.5C272.3 29 299.7 24 327 22C354.3 20 381.7 21 409 23.8C436.3 26.7 463.7 31.3 491 30.7C518.3 30 545.7 24 573 23.2C600.3 22.3 627.7 26.7 654.8 27.2C682 27.7 709 24.3 736.2 21.8C763.3 19.3 790.7 17.7 818 17.7C845.3 17.7 872.7 19.3 886.3 20.2L900 21L900 101L886.3 101C872.7 101 845.3 101 818 101C790.7 101 763.3 101 736.2 101C709 101 682 101 654.8 101C627.7 101 600.3 101 573 101C545.7 101 518.3 101 491 101C463.7 101 436.3 101 409 101C381.7 101 354.3 101 327 101C299.7 101 272.3 101 245.2 101C218 101 191 101 163.8 101C136.7 101 109.3 101 82 101C54.7 101 27.3 101 13.7 101L0 101Z" fill="#141414"></path><path d="M0 35L13.7 37.5C27.3 40 54.7 45 82 45.3C109.3 45.7 136.7 41.3 163.8 38.2C191 35 218 33 245.2 32.3C272.3 31.7 299.7 32.3 327 33.8C354.3 35.3 381.7 37.7 409 40.7C436.3 43.7 463.7 47.3 491 46.8C518.3 46.3 545.7 41.7 573 38.8C600.3 36 627.7 35 654.8 36.8C682 38.7 709 43.3 736.2 44.2C763.3 45 790.7 42 818 40C845.3 38 872.7 37 886.3 36.5L900 36L900 101L886.3 101C872.7 101 845.3 101 818 101C790.7 101 763.3 101 736.2 101C709 101 682 101 654.8 101C627.7 101 600.3 101 573 101C545.7 101 518.3 101 491 101C463.7 101 436.3 101 409 101C381.7 101 354.3 101 327 101C299.7 101 272.3 101 245.2 101C218 101 191 101 163.8 101C136.7 101 109.3 101 82 101C54.7 101 27.3 101 13.7 101L0 101Z" fill="#111111"></path><path d="M0 60L13.7 57.3C27.3 54.7 54.7 49.3 82 46.2C109.3 43 136.7 42 163.8 42.7C191 43.3 218 45.7 245.2 46.3C272.3 47 299.7 46 327 47.3C354.3 48.7 381.7 52.3 409 52C436.3 51.7 463.7 47.3 491 46.5C518.3 45.7 545.7 48.3 573 50.3C600.3 52.3 627.7 53.7 654.8 53.2C682 52.7 709 50.3 736.2 49.7C763.3 49 790.7 50 818 49.5C845.3 49 872.7 47 886.3 46L900 45L900 101L886.3 101C872.7 101 845.3 101 818 101C790.7 101 763.3 101 736.2 101C709 101 682 101 654.8 101C627.7 101 600.3 101 573 101C545.7 101 518.3 101 491 101C463.7 101 436.3 101 409 101C381.7 101 354.3 101 327 101C299.7 101 272.3 101 245.2 101C218 101 191 101 163.8 101C136.7 101 109.3 101 82 101C54.7 101 27.3 101 13.7 101L0 101Z" fill="#0d0d0d"></path><path d="M0 70L13.7 67.2C27.3 64.3 54.7 58.7 82 56C109.3 53.3 136.7 53.7 163.8 54.3C191 55 218 56 245.2 56.7C272.3 57.3 299.7 57.7 327 57.2C354.3 56.7 381.7 55.3 409 57.3C436.3 59.3 463.7 64.7 491 66.5C518.3 68.3 545.7 66.7 573 64.7C600.3 62.7 627.7 60.3 654.8 58.8C682 57.3 709 56.7 736.2 55.7C763.3 54.7 790.7 53.3 818 54.2C845.3 55 872.7 58 886.3 59.5L900 61L900 101L886.3 101C872.7 101 845.3 101 818 101C790.7 101 763.3 101 736.2 101C709 101 682 101 654.8 101C627.7 101 600.3 101 573 101C545.7 101 518.3 101 491 101C463.7 101 436.3 101 409 101C381.7 101 354.3 101 327 101C299.7 101 272.3 101 245.2 101C218 101 191 101 163.8 101C136.7 101 109.3 101 82 101C54.7 101 27.3 101 13.7 101L0 101Z" fill="#090909"></path><path d="M0 77L13.7 76.3C27.3 75.7 54.7 74.3 82 72.8C109.3 71.3 136.7 69.7 163.8 71C191 72.3 218 76.7 245.2 78.7C272.3 80.7 299.7 80.3 327 78.3C354.3 76.3 381.7 72.7 409 70.2C436.3 67.7 463.7 66.3 491 68C518.3 69.7 545.7 74.3 573 74.3C600.3 74.3 627.7 69.7 654.8 69.5C682 69.3 709 73.7 736.2 75.2C763.3 76.7 790.7 75.3 818 75.5C845.3 75.7 872.7 77.3 886.3 78.2L900 79L900 101L886.3 101C872.7 101 845.3 101 818 101C790.7 101 763.3 101 736.2 101C709 101 682 101 654.8 101C627.7 101 600.3 101 573 101C545.7 101 518.3 101 491 101C463.7 101 436.3 101 409 101C381.7 101 354.3 101 327 101C299.7 101 272.3 101 245.2 101C218 101 191 101 163.8 101C136.7 101 109.3 101 82 101C54.7 101 27.3 101 13.7 101L0 101Z" fill="#040404"></path><path d="M0 83L13.7 83C27.3 83 54.7 83 82 82.8C109.3 82.7 136.7 82.3 163.8 83.3C191 84.3 218 86.7 245.2 86.3C272.3 86 299.7 83 327 81.2C354.3 79.3 381.7 78.7 409 79C436.3 79.3 463.7 80.7 491 80.7C518.3 80.7 545.7 79.3 573 79.8C600.3 80.3 627.7 82.7 654.8 83.3C682 84 709 83 736.2 83.7C763.3 84.3 790.7 86.7 818 87.7C845.3 88.7 872.7 88.3 886.3 88.2L900 88L900 101L886.3 101C872.7 101 845.3 101 818 101C790.7 101 763.3 101 736.2 101C709 101 682 101 654.8 101C627.7 101 600.3 101 573 101C545.7 101 518.3 101 491 101C463.7 101 436.3 101 409 101C381.7 101 354.3 101 327 101C299.7 101 272.3 101 245.2 101C218 101 191 101 163.8 101C136.7 101 109.3 101 82 101C54.7 101 27.3 101 13.7 101L0 101Z" fill="#000000"></path></svg>