<svg id="visual" viewBox="0 0 900 200" width="900" height="200" xmlns="http://www.w3.org/2000/svg" xmlns:xlink="http://www.w3.org/1999/xlink" version="1.1"><rect x="0" y="0" width="900" height="200" fill="#141414"></rect><path d="M0 45L21.5 43.8C43 42.7 86 40.3 128.8 38.2C171.7 36 214.3 34 257.2 36.5C300 39 343 46 385.8 46.2C428.7 46.3 471.3 39.7 514.2 43.5C557 47.3 600 61.7 642.8 60.8C685.7 60 728.3 44 771.2 38.3C814 32.7 857 37.3 878.5 39.7L900 42L900 201L878.5 201C857 201 814 201 771.2 201C728.3 201 685.7 201 642.8 201C600 201 557 201 514.2 201C471.3 201 428.7 201 385.8 201C343 201 300 201 257.2 201C214.3 201 171.7 201 128.8 201C86 201 43 201 21.5 201L0 201Z" fill="#141414"></path><path d="M0 94L21.5 92.5C43 91 86 88 128.8 88.3C171.7 88.7 214.3 92.3 257.2 89.2C300 86 343 76 385.8 73.5C428.7 71 471.3 76 514.2 80.7C557 85.3 600 89.7 642.8 93C685.7 96.3 728.3 98.7 771.2 95.3C814 92 857 83 878.5 78.5L900 74L900 201L878.5 201C857 201 814 201 771.2 201C728.3 201 685.7 201 642.8 201C600 201 557 201 514.2 201C471.3 201 428.7 201 385.8 201C343 201 300 201 257.2 201C214.3 201 171.7 201 128.8 201C86 201 43 201 21.5 201L0 201Z" fill="#351c23"></path><path d="M0 95L21.5 92.8C43 90.7 86 86.3 128.8 88.5C171.7 90.7 214.3 99.3 257.2 104.3C300 109.3 343 110.7 385.8 106.3C428.7 102 471.3 92 514.2 87.5C557 83 600 84 642.8 89.3C685.7 94.7 728.3 104.3 771.2 108.2C814 112 857 110 878.5 109L900 108L900 201L878.5 201C857 201 814 201 771.2 201C728.3 201 685.7 201 642.8 201C600 201 557 201 514.2 201C471.3 201 428.7 201 385.8 201C343 201 300 201 257.2 201C214.3 201 171.7 201 128.8 201C86 201 43 201 21.5 201L0 201Z" fill="#562234"></path><path d="M0 143L21.5 142.7C43 142.3 86 141.7 128.8 141.8C171.7 142 214.3 143 257.2 137.2C300 131.3 343 118.7 385.8 116.7C428.7 114.7 471.3 123.3 514.2 129.2C557 135 600 138 642.8 135.7C685.7 133.3 728.3 125.7 771.2 126C814 126.3 857 134.7 878.5 138.8L900 143L900 201L878.5 201C857 201 814 201 771.2 201C728.3 201 685.7 201 642.8 201C600 201 557 201 514.2 201C471.3 201 428.7 201 385.8 201C343 201 300 201 257.2 201C214.3 201 171.7 201 128.8 201C86 201 43 201 21.5 201L0 201Z" fill="#7a2545"></path><path d="M0 145L21.5 144.7C43 144.3 86 143.7 128.8 145.3C171.7 147 214.3 151 257.2 151.8C300 152.7 343 150.3 385.8 150.5C428.7 150.7 471.3 153.3 514.2 150.8C557 148.3 600 140.7 642.8 136.8C685.7 133 728.3 133 771.2 136.8C814 140.7 857 148.3 878.5 152.2L900 156L900 201L878.5 201C857 201 814 201 771.2 201C728.3 201 685.7 201 642.8 201C600 201 557 201 514.2 201C471.3 201 428.7 201 385.8 201C343 201 300 201 257.2 201C214.3 201 171.7 201 128.8 201C86 201 43 201 21.5 201L0 201Z" fill="#9f2656"></path><path d="M0 174L21.5 172.3C43 170.7 86 167.3 128.8 167.2C171.7 167 214.3 170 257.2 171.3C300 172.7 343 172.3 385.8 170.5C428.7 168.7 471.3 165.3 514.2 165.8C557 166.3 600 170.7 642.8 172.7C685.7 174.7 728.3 174.3 771.2 175.5C814 176.7 857 179.3 878.5 180.7L900 182L900 201L878.5 201C857 201 814 201 771.2 201C728.3 201 685.7 201 642.8 201C600 201 557 201 514.2 201C471.3 201 428.7 201 385.8 201C343 201 300 201 257.2 201C214.3 201 171.7 201 128.8 201C86 201 43 201 21.5 201L0 201Z" fill="#c62368"></path></svg>