<svg id="visual" viewBox="0 0 900 300" width="900" height="300" xmlns="http://www.w3.org/2000/svg" xmlns:xlink="http://www.w3.org/1999/xlink" version="1.1"><rect x="0" y="0" width="900" height="300" fill="#141414"></rect><path d="M0 205L21.5 207C43 209 86 213 128.8 212.7C171.7 212.3 214.3 207.7 257.2 200.8C300 194 343 185 385.8 181.7C428.7 178.3 471.3 180.7 514.2 181.5C557 182.3 600 181.7 642.8 186.8C685.7 192 728.3 203 771.2 203.3C814 203.7 857 193.3 878.5 188.2L900 183L900 301L878.5 301C857 301 814 301 771.2 301C728.3 301 685.7 301 642.8 301C600 301 557 301 514.2 301C471.3 301 428.7 301 385.8 301C343 301 300 301 257.2 301C214.3 301 171.7 301 128.8 301C86 301 43 301 21.5 301L0 301Z" fill="#151515"></path><path d="M0 214L21.5 213.7C43 213.3 86 212.7 128.8 213.5C171.7 214.3 214.3 216.7 257.2 217C300 217.3 343 215.7 385.8 212.8C428.7 210 471.3 206 514.2 203.5C557 201 600 200 642.8 205.5C685.7 211 728.3 223 771.2 226.5C814 230 857 225 878.5 222.5L900 220L900 301L878.5 301C857 301 814 301 771.2 301C728.3 301 685.7 301 642.8 301C600 301 557 301 514.2 301C471.3 301 428.7 301 385.8 301C343 301 300 301 257.2 301C214.3 301 171.7 301 128.8 301C86 301 43 301 21.5 301L0 301Z" fill="#1e1e1e"></path><path d="M0 236L21.5 238.3C43 240.7 86 245.3 128.8 243.8C171.7 242.3 214.3 234.7 257.2 229.5C300 224.3 343 221.7 385.8 220.8C428.7 220 471.3 221 514.2 226C557 231 600 240 642.8 241.2C685.7 242.3 728.3 235.7 771.2 234C814 232.3 857 235.7 878.5 237.3L900 239L900 301L878.5 301C857 301 814 301 771.2 301C728.3 301 685.7 301 642.8 301C600 301 557 301 514.2 301C471.3 301 428.7 301 385.8 301C343 301 300 301 257.2 301C214.3 301 171.7 301 128.8 301C86 301 43 301 21.5 301L0 301Z" fill="#272727"></path><path d="M0 246L21.5 245.8C43 245.7 86 245.3 128.8 248C171.7 250.7 214.3 256.3 257.2 258.7C300 261 343 260 385.8 259.7C428.7 259.3 471.3 259.7 514.2 257.8C557 256 600 252 642.8 251.8C685.7 251.7 728.3 255.3 771.2 256.8C814 258.3 857 257.7 878.5 257.3L900 257L900 301L878.5 301C857 301 814 301 771.2 301C728.3 301 685.7 301 642.8 301C600 301 557 301 514.2 301C471.3 301 428.7 301 385.8 301C343 301 300 301 257.2 301C214.3 301 171.7 301 128.8 301C86 301 43 301 21.5 301L0 301Z" fill="#313131"></path><path d="M0 282L21.5 282.5C43 283 86 284 128.8 284.2C171.7 284.3 214.3 283.7 257.2 280.3C300 277 343 271 385.8 267.8C428.7 264.7 471.3 264.3 514.2 266.5C557 268.7 600 273.3 642.8 275.8C685.7 278.3 728.3 278.7 771.2 277.5C814 276.3 857 273.7 878.5 272.3L900 271L900 301L878.5 301C857 301 814 301 771.2 301C728.3 301 685.7 301 642.8 301C600 301 557 301 514.2 301C471.3 301 428.7 301 385.8 301C343 301 300 301 257.2 301C214.3 301 171.7 301 128.8 301C86 301 43 301 21.5 301L0 301Z" fill="#3b3b3b"></path></svg>