<svg id="visual" viewBox="0 0 900 200" width="900" height="200" xmlns="http://www.w3.org/2000/svg" xmlns:xlink="http://www.w3.org/1999/xlink" version="1.1"><rect x="0" y="0" width="900" height="200" fill="#141414"></rect><path d="M0 43L16.7 47.2C33.3 51.3 66.7 59.7 100 57.7C133.3 55.7 166.7 43.3 200 46C233.3 48.7 266.7 66.3 300 73.8C333.3 81.3 366.7 78.7 400 71.7C433.3 64.7 466.7 53.3 500 55.7C533.3 58 566.7 74 600 81.5C633.3 89 666.7 88 700 87.5C733.3 87 766.7 87 800 81.5C833.3 76 866.7 65 883.3 59.5L900 54L900 201L883.3 201C866.7 201 833.3 201 800 201C766.7 201 733.3 201 700 201C666.7 201 633.3 201 600 201C566.7 201 533.3 201 500 201C466.7 201 433.3 201 400 201C366.7 201 333.3 201 300 201C266.7 201 233.3 201 200 201C166.7 201 133.3 201 100 201C66.7 201 33.3 201 16.7 201L0 201Z" fill="#141414"></path><path d="M0 73L16.7 74.5C33.3 76 66.7 79 100 81.8C133.3 84.7 166.7 87.3 200 88C233.3 88.7 266.7 87.3 300 87.8C333.3 88.3 366.7 90.7 400 94C433.3 97.3 466.7 101.7 500 103.2C533.3 104.7 566.7 103.3 600 104.2C633.3 105 666.7 108 700 103.5C733.3 99 766.7 87 800 81C833.3 75 866.7 75 883.3 75L900 75L900 201L883.3 201C866.7 201 833.3 201 800 201C766.7 201 733.3 201 700 201C666.7 201 633.3 201 600 201C566.7 201 533.3 201 500 201C466.7 201 433.3 201 400 201C366.7 201 333.3 201 300 201C266.7 201 233.3 201 200 201C166.7 201 133.3 201 100 201C66.7 201 33.3 201 16.7 201L0 201Z" fill="#1f2325"></path><path d="M0 117L16.7 116.3C33.3 115.7 66.7 114.3 100 113.2C133.3 112 166.7 111 200 112.7C233.3 114.3 266.7 118.7 300 119.7C333.3 120.7 366.7 118.3 400 119.7C433.3 121 466.7 126 500 125.8C533.3 125.7 566.7 120.3 600 112.3C633.3 104.3 666.7 93.7 700 94C733.3 94.3 766.7 105.7 800 106.5C833.3 107.3 866.7 97.7 883.3 92.8L900 88L900 201L883.3 201C866.7 201 833.3 201 800 201C766.7 201 733.3 201 700 201C666.7 201 633.3 201 600 201C566.7 201 533.3 201 500 201C466.7 201 433.3 201 400 201C366.7 201 333.3 201 300 201C266.7 201 233.3 201 200 201C166.7 201 133.3 201 100 201C66.7 201 33.3 201 16.7 201L0 201Z" fill="#2a3237"></path><path d="M0 140L16.7 139C33.3 138 66.7 136 100 131.7C133.3 127.3 166.7 120.7 200 123C233.3 125.3 266.7 136.7 300 136.2C333.3 135.7 366.7 123.3 400 120.3C433.3 117.3 466.7 123.7 500 124.3C533.3 125 566.7 120 600 120.3C633.3 120.7 666.7 126.3 700 125.7C733.3 125 766.7 118 800 118.7C833.3 119.3 866.7 127.7 883.3 131.8L900 136L900 201L883.3 201C866.7 201 833.3 201 800 201C766.7 201 733.3 201 700 201C666.7 201 633.3 201 600 201C566.7 201 533.3 201 500 201C466.7 201 433.3 201 400 201C366.7 201 333.3 201 300 201C266.7 201 233.3 201 200 201C166.7 201 133.3 201 100 201C66.7 201 33.3 201 16.7 201L0 201Z" fill="#36424b"></path><path d="M0 141L16.7 143.5C33.3 146 66.7 151 100 149.3C133.3 147.7 166.7 139.3 200 139C233.3 138.7 266.7 146.3 300 150.2C333.3 154 366.7 154 400 154C433.3 154 466.7 154 500 154.8C533.3 155.7 566.7 157.3 600 157.5C633.3 157.7 666.7 156.3 700 154.5C733.3 152.7 766.7 150.3 800 147.2C833.3 144 866.7 140 883.3 138L900 136L900 201L883.3 201C866.7 201 833.3 201 800 201C766.7 201 733.3 201 700 201C666.7 201 633.3 201 600 201C566.7 201 533.3 201 500 201C466.7 201 433.3 201 400 201C366.7 201 333.3 201 300 201C266.7 201 233.3 201 200 201C166.7 201 133.3 201 100 201C66.7 201 33.3 201 16.7 201L0 201Z" fill="#42535e"></path><path d="M0 182L16.7 181.3C33.3 180.7 66.7 179.3 100 177.8C133.3 176.3 166.7 174.7 200 175.2C233.3 175.7 266.7 178.3 300 176.5C333.3 174.7 366.7 168.3 400 165.7C433.3 163 466.7 164 500 164.5C533.3 165 566.7 165 600 167.3C633.3 169.7 666.7 174.3 700 173.2C733.3 172 766.7 165 800 165.7C833.3 166.3 866.7 174.7 883.3 178.8L900 183L900 201L883.3 201C866.7 201 833.3 201 800 201C766.7 201 733.3 201 700 201C666.7 201 633.3 201 600 201C566.7 201 533.3 201 500 201C466.7 201 433.3 201 400 201C366.7 201 333.3 201 300 201C266.7 201 233.3 201 200 201C166.7 201 133.3 201 100 201C66.7 201 33.3 201 16.7 201L0 201Z" fill="#4e6473"></path></svg>